<svg xmlns="http://www.w3.org/2000/svg"  viewBox="0 0 64 64" width="64px" height="64px"><path d="M 32.25 7.9980469 C 21.908809 7.8910468 12.27906 14.533283 9.0703125 24.912109 C 5.1616271 37.554915 12.048483 51.042129 24.705078 54.955078 A 1.0001 1.0001 0 0 0 26 54 L 26 46 L 34 46 A 1.0001 1.0001 0 0 0 35 45 L 35 33.5 C 35 32.659188 35.659188 32 36.5 32 C 37.340812 32 38 32.659188 38 33.5 L 38 45 A 1.0001 1.0001 0 0 0 39 46 L 45 46 A 1.0001 1.0001 0 0 0 46 45 L 46 30.65625 C 46 26.991704 43.008296 24 39.34375 24 C 37.727316 24 36.209515 24.648991 35 25.707031 L 35 25 A 1.0001 1.0001 0 0 0 34 24 L 29 24 A 1.0001 1.0001 0 0 0 28 25 L 28 40.978516 A 1.0001 1.0001 0 1 0 30 40.978516 L 30 26 L 33 26 L 33 28 A 1.0001 1.0001 0 0 0 34.707031 28.707031 L 36.050781 27.363281 C 36.924508 26.489555 38.108639 26 39.34375 26 C 41.927204 26 44 28.072796 44 30.65625 L 44 44 L 40 44 L 40 33.5 C 40 31.578812 38.421188 30 36.5 30 C 34.578812 30 33 31.578812 33 33.5 L 33 44 L 26 44 L 26 25 A 1.0001 1.0001 0 0 0 25.447266 24.105469 C 25.822119 23.460229 26 22.726309 26 22 C 26 21.027778 25.681319 20.042118 24.998047 19.273438 C 24.314774 18.504756 23.25 18 22 18 C 20.75 18 19.685226 18.504756 19.001953 19.273438 C 18.318681 20.042119 18 21.027778 18 22 C 18 22.726889 18.177267 23.461809 18.552734 24.107422 A 1.0001 1.0001 0 0 0 18 25 L 18 45 A 1.0001 1.0001 0 0 0 19 46 L 24 46 L 24 52.496094 C 13.253966 48.398553 7.5271562 36.671835 10.980469 25.501953 C 14.572853 13.882237 26.878383 7.3881005 38.498047 10.980469 C 50.117763 14.572853 56.611899 26.878383 53.019531 38.498047 C 50.030347 48.164545 41.000706 54.278166 31.369141 53.996094 A 1.0004291 1.0004291 0 1 0 31.310547 55.996094 C 41.824977 56.304022 51.674871 49.613393 54.929688 39.087891 C 58.84132 26.435554 51.740175 12.981928 39.087891 9.0703125 C 37.506349 8.5813585 35.912557 8.2648684 34.326172 8.109375 C 33.632128 8.0413466 32.939413 8.0051802 32.25 7.9980469 z M 22 20 C 22.749999 20 23.185226 20.245244 23.501953 20.601562 C 23.81868 20.957881 24 21.472222 24 22 C 24 22.527778 23.81868 23.042118 23.501953 23.398438 C 23.185226 23.754756 22.749999 24 22 24 C 21.250001 24 20.814774 23.754756 20.498047 23.398438 C 20.18132 23.042119 20 22.527778 20 22 C 20 21.472222 20.18132 20.957882 20.498047 20.601562 C 20.814774 20.245244 21.250001 20 22 20 z M 20 26 L 22 26 L 24 26 L 24 44 L 20 44 L 20 26 z"/></svg>