<svg xmlns="http://www.w3.org/2000/svg" xmlns:xlink="http://www.w3.org/1999/xlink" viewBox="0,0,256,256" width="64px" height="64px" fill-rule="nonzero"><g fill="#dce2b8" fill-rule="nonzero" stroke="none" stroke-width="1" stroke-linecap="butt" stroke-linejoin="miter" stroke-miterlimit="10" stroke-dasharray="" stroke-dashoffset="0" font-family="none" font-weight="none" font-size="none" text-anchor="none" style="mix-blend-mode: normal"><g transform="scale(4,4)"><path d="M31.71484,8.33203c-13.02408,0.13562 -23.63477,10.74843 -23.63477,23.83008c0,9.39419 5.13572,18.26798 13.48437,21.47656c2.88967,1.11063 5.88432,1.01143 8.51758,0.21094c3.46749,1.14429 7.48811,1.5044 11.56836,0.08203c12.4293,-4.33234 18.22802,-21.06318 10.88867,-34.13867c-2.62826,-4.68191 -6.96715,-8.17603 -12.00391,-9.95703c-2.08581,-0.73735 -4.15745,-1.19105 -6.18555,-1.38867c-0.88729,-0.08646 -1.76649,-0.12428 -2.63477,-0.11523zM31.70703,10.3125c0.80074,-0.00613 1.61175,0.03137 2.43164,0.11328c1.87404,0.18723 3.79303,0.61002 5.73047,1.29492c4.60124,1.627 8.55199,4.82065 10.92773,9.05273c6.76065,12.0445 1.28001,27.40587 -9.80469,31.26953c-2.7015,0.94174 -5.3763,0.96539 -7.87109,0.51563c2.00413,-1.44653 3.38281,-3.63527 3.38281,-6.38281c0.08732,-2.29789 0.016,-4.84406 0,-8.17578h4.49609c0.55226,-0.00006 0.99994,-0.44774 1,-1v-6c-0.00006,-0.55226 -0.44774,-0.99994 -1,-1h-4v-3.10352c0,-1.06 0.83648,-1.89648 1.89648,-1.89648h1.10352c0.55226,-0.00006 0.99994,-0.44774 1,-1v-7c-0.00006,-0.55226 -0.44774,-0.99994 -1,-1h-4c-2.76667,0 -5.08548,1.14309 -6.63867,2.97656c-1.55319,1.83348 -2.36133,4.31471 -2.36133,7.00781v4.01563h-4c-0.55226,0.00006 -0.99994,0.44774 -1,1v6c0.00006,0.55226 0.44774,0.99994 1,1h4v8c-0.0051,0.36064 0.18438,0.69608 0.49587,0.87789c0.3115,0.18181 0.69676,0.18181 1.00825,0c0.3115,-0.18181 0.50097,-0.51725 0.49587,-0.87789v-9c-0.00006,-0.55226 -0.44774,-0.99994 -1,-1h-4v-4h4c0.55226,-0.00006 0.99994,-0.44774 1,-1v-5.01562c0,-2.2919 0.69187,-4.30207 1.88867,-5.71484c1.19681,-1.41277 2.87799,-2.26953 5.11133,-2.26953h3v5h-0.10352c-2.14,0 -3.89648,1.75648 -3.89648,3.89648v4.10352c0.00006,0.55226 0.44774,0.99994 1,1h4v4h-4.49609c-0.55226,0.00006 -0.99994,0.44774 -1,1c0,4.09402 0.09601,6.6503 0,9.13672c-0.00025,0.01302 -0.00025,0.02604 0,0.03906c0,2.66046 -1.50794,4.506 -3.8418,5.55273c-0.11289,0.05063 -0.2682,0.03385 -0.38477,0.08008c-0.40999,-0.14665 -0.84353,-0.25891 -1.23437,-0.42969c-3.45334,-1.50894 -6.07519,-3.96483 -6.91797,-5.65039c-0.15973,-0.31969 -0.47791,-0.52985 -0.83464,-0.55129c-0.35673,-0.02144 -0.69779,0.14909 -0.89467,0.44734c-0.19688,0.29825 -0.21966,0.67889 -0.05975,0.99849c1.05234,2.10467 3.56635,4.22453 6.71875,5.86133c-1.55864,0.076 -3.18696,-0.10193 -4.77148,-0.71094c-7.44535,-2.86142 -12.20312,-10.94752 -12.20312,-19.61133c0,-12.00678 9.61587,-21.75763 21.62695,-21.84961z"></path></g></g></svg>