<svg xmlns="http://www.w3.org/2000/svg" xmlns:xlink="http://www.w3.org/1999/xlink" viewBox="0,0,256,256" width="64px" height="64px" fill-rule="nonzero"><g fill="#dce2b8" fill-rule="nonzero" stroke="none" stroke-width="1" stroke-linecap="butt" stroke-linejoin="miter" stroke-miterlimit="10" stroke-dasharray="" stroke-dashoffset="0" font-family="none" font-weight="none" font-size="none" text-anchor="none" style="mix-blend-mode: normal"><g transform="scale(4,4)"><path d="M22.18164,10c-7.26751,0 -13.18164,5.91413 -13.18164,13.18164v19.63672c0,7.26751 5.91413,13.18164 13.18164,13.18164h19.63672c7.26751,0 13.18164,-5.91413 13.18164,-13.18164v-19.63672c0.0051,-0.36064 -0.18438,-0.69608 -0.49587,-0.87789c-0.3115,-0.18181 -0.69676,-0.18181 -1.00825,0c-0.3115,0.18181 -0.50097,0.51725 -0.49587,0.87789v19.63672c0,6.18649 -4.99515,11.18164 -11.18164,11.18164h-19.63672c-6.18649,0 -11.18164,-4.99515 -11.18164,-11.18164v-19.63672c0,-6.18649 4.99515,-11.18164 11.18164,-11.18164h19.63672c3.001,0 5.55118,1.69356 6.48242,3.65039c0.46562,0.97841 0.55758,1.98981 0.17969,3.00977c-0.2147,0.57948 -0.65539,1.16959 -1.25,1.75391c-0.57693,-1.19865 -1.30511,-2.20169 -2.24023,-2.74414c-1.45955,-0.84666 -3.26516,-0.82278 -4.45508,0.27539c-0.01823,0.01692 -0.03582,0.03451 -0.05273,0.05273c-0.71192,0.76143 -1.01865,1.74141 -0.92969,2.64844c0.08897,0.90703 0.53284,1.7327 1.19336,2.35938c1.23796,1.17453 3.31685,1.57774 5.36914,0.60547c1.70206,12.37759 -6.38042,19.38867 -14.11523,19.38867c-3.76841,0 -5.89006,-1.5571 -7.22266,-3.4707c-1.33259,-1.91361 -1.77734,-4.27508 -1.77734,-5.5293c0,-1.38658 0.46942,-3.71301 1.8125,-5.58594c1.34308,-1.87293 3.47703,-3.37918 7.19727,-3.41406c4.07121,-0.03836 6.34094,2.51191 6.95313,5.4043c0.61219,2.89239 -0.48648,5.95991 -3.64844,7.125c-0.51831,0.19093 -0.7837,0.76587 -0.59277,1.28418c0.19093,0.51831 0.76587,0.7837 1.28418,0.59277c4.11405,-1.51591 5.69562,-5.7234 4.91406,-9.41602c-0.78156,-3.69261 -3.9799,-7.03687 -8.92969,-6.99023c-4.27977,0.04012 -7.14582,1.93748 -8.80273,4.24805c-1.65692,2.31057 -2.1875,4.94753 -2.1875,6.75195c0,1.68178 0.49661,4.31948 2.13477,6.67188c1.63816,2.35239 4.51664,4.32813 8.86523,4.32813c9.12535,0 18.32116,-8.60442 16.03906,-22.39648c-0.01621,-0.09811 -0.07293,-0.15426 -0.0918,-0.25c1.11479,-0.91292 2.00199,-1.90362 2.4082,-3c0.57248,-1.54514 0.41338,-3.16854 -0.25,-4.5625c-1.32675,-2.78792 -4.55411,-4.79102 -8.28711,-4.79102zM42.79102,19.05664c0.35675,-0.01247 0.76146,0.09208 1.19531,0.34375c0.62807,0.36433 1.19423,1.18897 1.62109,2.26367c-0.02941,0.01715 -0.04039,0.03565 -0.07031,0.05273c-0.00065,0 -0.0013,0 -0.00195,0c-1.52287,0.86974 -2.7179,0.49653 -3.41211,-0.16211c-0.34711,-0.32932 -0.54389,-0.73454 -0.58008,-1.10352c-0.03496,-0.35638 0.06408,-0.6893 0.38672,-1.05078c0.23078,-0.2002 0.52006,-0.33182 0.86133,-0.34375z"></path></g></g></svg>