<svg xmlns="http://www.w3.org/2000/svg" xmlns:xlink="http://www.w3.org/1999/xlink" viewBox="0,0,256,256" width="64px" height="64px" fill-rule="nonzero"><g fill="#dce2b8" fill-rule="nonzero" stroke="none" stroke-width="1" stroke-linecap="butt" stroke-linejoin="miter" stroke-miterlimit="10" stroke-dasharray="" stroke-dashoffset="0" font-family="none" font-weight="none" font-size="none" text-anchor="none" style="mix-blend-mode: normal"><g transform="scale(4,4)"><path d="M32.25,7.99805c-10.34119,-0.107 -19.97094,6.53524 -23.17969,16.91406c-3.90869,12.64281 2.97817,26.13002 15.63477,30.04297c0.3033,0.09357 0.63301,0.03761 0.88845,-0.1508c0.25544,-0.1884 0.40629,-0.48688 0.40647,-0.80428v-8h8c0.55226,-0.00006 0.99994,-0.44774 1,-1v-11.5c0,-0.84081 0.65919,-1.5 1.5,-1.5c0.84081,0 1.5,0.65919 1.5,1.5v11.5c0.00006,0.55226 0.44774,0.99994 1,1h6c0.55226,-0.00006 0.99994,-0.44774 1,-1v-14.34375c0,-3.66455 -2.9917,-6.65625 -6.65625,-6.65625c-1.61643,0 -3.13423,0.64899 -4.34375,1.70703v-0.70703c-0.00006,-0.55226 -0.44774,-0.99994 -1,-1h-5c-0.55226,0.00006 -0.99994,0.44774 -1,1v15.97852c-0.0051,0.36064 0.18438,0.69608 0.49587,0.87789c0.3115,0.18181 0.69676,0.18181 1.00825,0c0.3115,-0.18181 0.50097,-0.51725 0.49587,-0.87789v-14.97852h3v2c0.00016,0.40437 0.24381,0.76885 0.6174,0.92359c0.37359,0.15474 0.8036,0.06927 1.08963,-0.21656l1.34375,-1.34375c0.87373,-0.87373 2.05786,-1.36328 3.29297,-1.36328c2.58345,0 4.65625,2.0728 4.65625,4.65625v13.34375h-4v-10.5c0,-1.92119 -1.57881,-3.5 -3.5,-3.5c-1.92119,0 -3.5,1.57881 -3.5,3.5v10.5h-7v-19c0.00003,-0.37879 -0.21395,-0.72509 -0.55273,-0.89453c0.37485,-0.64524 0.55273,-1.37916 0.55273,-2.10547c0,-0.97222 -0.31868,-1.95788 -1.00195,-2.72656c-0.68327,-0.76868 -1.74805,-1.27344 -2.99805,-1.27344c-1.25,0 -2.31477,0.50476 -2.99805,1.27344c-0.68327,0.76868 -1.00195,1.75434 -1.00195,2.72656c0,0.72689 0.17727,1.46181 0.55273,2.10742c-0.33815,0.16913 -0.55202,0.51449 -0.55273,0.89258v20c0.00006,0.55226 0.44774,0.99994 1,1h5v6.49609c-10.74603,-4.09754 -16.47284,-15.82426 -13.01953,-26.99414c3.59238,-11.61972 15.89791,-18.11385 27.51758,-14.52148c11.61972,3.59238 18.11385,15.89791 14.52148,27.51758c-2.98918,9.6665 -12.01882,15.78012 -21.65039,15.49805c-0.35733,-0.01056 -0.69313,0.17034 -0.88089,0.47455c-0.18776,0.3042 -0.19893,0.68548 -0.0293,1.00015c0.16963,0.31467 0.49427,0.51493 0.8516,0.5253c10.51443,0.30793 20.36432,-6.3827 23.61914,-16.9082c3.91163,-12.65234 -3.18951,-26.10596 -15.8418,-30.01758c-1.58154,-0.48895 -3.17533,-0.80544 -4.76172,-0.96094c-0.69404,-0.06803 -1.38676,-0.10419 -2.07617,-0.11133zM22,20c0.75,0 1.18523,0.24524 1.50195,0.60156c0.31673,0.35632 0.49805,0.87066 0.49805,1.39844c0,0.52778 -0.18132,1.04212 -0.49805,1.39844c-0.31673,0.35632 -0.75195,0.60156 -1.50195,0.60156c-0.75,0 -1.18523,-0.24524 -1.50195,-0.60156c-0.31673,-0.35632 -0.49805,-0.87066 -0.49805,-1.39844c0,-0.52778 0.18132,-1.04212 0.49805,-1.39844c0.31673,-0.35632 0.75195,-0.60156 1.50195,-0.60156zM20,26h2h2v18h-4z"></path></g></g></svg>