<svg xmlns="http://www.w3.org/2000/svg"  viewBox="0 0 64 64" width="64px" height="64px"><path d="M 31.714844 8.3320312 C 18.69076 8.4676543 8.0800781 19.080458 8.0800781 32.162109 C 8.0800781 41.556303 13.2158 50.430091 21.564453 53.638672 C 24.454124 54.749306 27.448768 54.650107 30.082031 53.849609 C 33.549523 54.993902 37.570137 55.354013 41.650391 53.931641 C 54.079695 49.599305 59.878414 32.868465 52.539062 19.792969 C 49.910804 15.111054 45.571915 11.616937 40.535156 9.8359375 C 38.449344 9.0985868 36.37771 8.6448862 34.349609 8.4472656 C 33.462315 8.3608066 32.583116 8.3229897 31.714844 8.3320312 z M 31.707031 10.3125 C 32.50777 10.306368 33.318778 10.343869 34.138672 10.425781 C 36.012716 10.613008 37.931703 11.035804 39.869141 11.720703 C 44.470382 13.347704 48.421134 16.541352 50.796875 20.773438 C 57.557524 32.81794 52.076883 48.179306 40.992188 52.042969 C 38.290687 52.984708 35.615887 53.008359 33.121094 52.558594 C 35.125229 51.112067 36.503906 48.923323 36.503906 46.175781 C 36.591226 43.877888 36.519906 41.331721 36.503906 38 L 41 38 A 1.0001 1.0001 0 0 0 42 37 L 42 31 A 1.0001 1.0001 0 0 0 41 30 L 37 30 L 37 26.896484 C 37 25.836484 37.836484 25 38.896484 25 L 40 25 A 1.0001 1.0001 0 0 0 41 24 L 41 17 A 1.0001 1.0001 0 0 0 40 16 L 36 16 C 33.233333 16 30.914522 17.143088 29.361328 18.976562 C 27.808134 20.810037 27 23.291273 27 25.984375 L 27 30 L 23 30 A 1.0001 1.0001 0 0 0 22 31 L 22 37 A 1.0001 1.0001 0 0 0 23 38 L 27 38 L 27 46 A 1.0001 1.0001 0 1 0 29 46 L 29 37 A 1.0001 1.0001 0 0 0 28 36 L 24 36 L 24 32 L 28 32 A 1.0001 1.0001 0 0 0 29 31 L 29 25.984375 C 29 23.692477 29.691866 21.682307 30.888672 20.269531 C 32.085478 18.856756 33.766667 18 36 18 L 39 18 L 39 23 L 38.896484 23 C 36.756484 23 35 24.756484 35 26.896484 L 35 31 A 1.0001 1.0001 0 0 0 36 32 L 40 32 L 40 36 L 35.503906 36 A 1.0001 1.0001 0 0 0 34.503906 37 C 34.503906 41.094021 34.599916 43.6503 34.503906 46.136719 A 1.0001 1.0001 0 0 0 34.503906 46.175781 C 34.503906 48.836245 32.995968 50.681779 30.662109 51.728516 C 30.549224 51.779146 30.393906 51.762364 30.277344 51.808594 C 29.867358 51.661941 29.433816 51.549688 29.042969 51.378906 C 25.589625 49.869961 22.967779 47.414073 22.125 45.728516 A 1.0001161 1.0001161 0 1 0 20.335938 46.623047 C 21.388275 48.727721 23.902289 50.847575 27.054688 52.484375 C 25.496046 52.560375 23.86773 52.382444 22.283203 51.773438 C 14.837856 48.912017 10.080078 40.825916 10.080078 32.162109 C 10.080078 20.155325 19.695944 10.404474 31.707031 10.3125 z"/></svg>