<svg xmlns="http://www.w3.org/2000/svg" xmlns:xlink="http://www.w3.org/1999/xlink" viewBox="0,0,256,256" width="64px" height="64px" fill-rule="nonzero"><g fill="#dce2b8" fill-rule="nonzero" stroke="none" stroke-width="1" stroke-linecap="butt" stroke-linejoin="miter" stroke-miterlimit="10" stroke-dasharray="" stroke-dashoffset="0" font-family="none" font-weight="none" font-size="none" text-anchor="none" style="mix-blend-mode: normal"><g transform="scale(4,4)"><path d="M31.49609,8.05078c-13.24024,0.30442 -23.74778,11.30661 -23.44336,24.54687c0.30442,13.23928 11.30661,23.74583 24.54687,23.44141c12.27914,-0.28253 21.89206,-9.77199 22.97266,-21.69922c0.03986,-0.43724 -0.09769,-0.55869 -0.1582,-0.6582c-0.06051,-0.09952 -0.10854,-0.15593 -0.15625,-0.21094c-0.09542,-0.11002 -0.19037,-0.20115 -0.30273,-0.30469c-0.22473,-0.20707 -0.51385,-0.45099 -0.85937,-0.73047c-0.69106,-0.55896 -1.5988,-1.25416 -2.50586,-1.9375c-1.81413,-1.36669 -3.62695,-2.68164 -3.62695,-2.68164c-0.00581,-0.00462 -0.01167,-0.00918 -0.01758,-0.01367c-5.61127,-3.89488 -13.11266,-4.64898 -19.20312,-4.50586c-6.09046,0.14312 -10.83984,1.22852 -10.83984,1.22852c-0.26333,0.06005 -0.49117,0.22406 -0.6317,0.45472c-0.14053,0.23065 -0.18179,0.50834 -0.11439,0.76989l1.875,7.25c0.06835,0.26557 0.24274,0.49142 0.48239,0.62472c0.23964,0.1333 0.52351,0.16235 0.78519,0.08035c0,0 11.07803,-3.37542 22.39844,1.8418l-1.90039,4.66797c-0.85842,-0.55855 -2.12035,-1.25125 -4.08594,-1.84375c-3.4388,-1.03658 -8.61758,-1.56894 -15.59375,0.28711c-0.34549,0.09203 -0.61562,0.36142 -0.7086,0.70665c-0.09298,0.34524 0.00532,0.71385 0.25785,0.96695c0.25254,0.2531 0.62093,0.35221 0.96637,0.25999c6.64883,-1.76895 11.40755,-1.23881 14.5,-0.30664c3.09245,0.93217 4.43945,2.20117 4.43945,2.20117c0.24125,0.22191 0.57593,0.31152 0.89578,0.23983c0.31985,-0.07168 0.58428,-0.29556 0.70774,-0.59921l2.75,-6.75c0.197,-0.48376 -0.01145,-1.03765 -0.47852,-1.27148c-10.89856,-5.44928 -21.26753,-3.20061 -23.72461,-2.55664l-1.35937,-5.25586c1.20159,-0.24555 4.53749,-0.88123 9.42578,-0.99609c5.87829,-0.13813 13.00189,0.67027 18.01563,4.15039c0.01781,0.01293 1.79559,1.3026 3.58203,2.64844c0.89769,0.67628 1.79504,1.36578 2.45117,1.89648c0.28934,0.23403 0.50543,0.41917 0.67188,0.56836c-1.17233,10.76924 -9.82151,19.2223 -20.95703,19.47852c-12.15974,0.27958 -22.22042,-9.32956 -22.5,-21.48828c-0.27958,-12.15974 9.32852,-22.22042 21.48828,-22.5c10.1124,-0.23259 18.77155,6.38652 21.5625,15.60547c0.00085,0.0028 0.00311,0.00501 0.00391,0.00781l0.49609,1.875c0.08959,0.34746 0.35845,0.62029 0.70455,0.71497c0.34611,0.09467 0.71641,-0.00332 0.97038,-0.25681c0.25397,-0.25348 0.35268,-0.62359 0.25866,-0.96988l-0.50586,-1.9082c-0.00306,-0.01112 -0.00632,-0.02219 -0.00977,-0.0332c-3.04374,-10.06867 -12.51087,-17.2885 -23.52539,-17.03516z"></path></g></g></svg>